{
  "accessors": [
    {
      "bufferView": 2,
      "componentType": 5126,
      "count": 8988,
      "max": [
        7.487817287445068,
        7.509713649749756,
        2.5475878715515137
      ],
      "min": [
        -7.512170314788818,
        -3.2302305698394775,
        -7.935309410095215
      ],
      "type": "VEC3"
    },
    {
      "bufferView": 2,
      "byteOffset": 107856,
      "componentType": 5126,
      "count": 8988,
      "max": [
        0.9999999403953552,
        0.9994231462478638,
        0.9998189806938171
      ],
      "min": [
        -0.9997813701629639,
        -0.9999561309814453,
        -0.9994934797286987
      ],
      "type": "VEC3"
    },
    {
      "bufferView": 1,
      "componentType": 5126,
      "count": 8988,
      "max": [
        1.0,
        1.0
      ],
      "min": [
        0.0,
        0.0
      ],
      "type": "VEC2"
    },
    {
      "bufferView": 0,
      "componentType": 5125,
      "count": 11634,
      "type": "SCALAR"
    }
  ],
  "asset": {
    "extras": {
      "author": "Bull studios (https://sketchfab.com/dzemalmclaren)",
      "license": "CC-BY-4.0 (http://creativecommons.org/licenses/by/4.0/)",
      "source": "https://sketchfab.com/3d-models/stone-debris-7aa1a1c3aebd40c982ac2e3cd201e7a8",
      "title": "Stone Debris"
    },
    "generator": "Sketchfab-12.68.0",
    "version": "2.0"
  },
  "bufferViews": [
    {
      "buffer": 0,
      "byteLength": 46536,
      "name": "floatBufferViews",
      "target": 34963
    },
    {
      "buffer": 0,
      "byteLength": 71904,
      "byteOffset": 46536,
      "byteStride": 8,
      "name": "floatBufferViews",
      "target": 34962
    },
    {
      "buffer": 0,
      "byteLength": 215712,
      "byteOffset": 118440,
      "byteStride": 12,
      "name": "floatBufferViews",
      "target": 34962
    }
  ],
  "buffers": [
    {
      "byteLength": 334152,
      "uri": "scene.bin"
    }
  ],
  "materials": [
    {
      "doubleSided": true,
      "name": "Scene_-_Root",
      "pbrMetallicRoughness": {
        "baseColorFactor": [
          0.1934618566,
          0.1941319827,
          0.1267717442,
          1.0
        ],
        "metallicFactor": 0.0,
        "roughnessFactor": 0.6
      }
    }
  ],
  "meshes": [
    {
      "name": "Cube_cell.018__0",
      "primitives": [
        {
          "attributes": {
            "NORMAL": 1,
            "POSITION": 0,
            "TEXCOORD_0": 2
          },
          "indices": 3,
          "material": 0,
          "mode": 4
        }
      ]
    }
  ],
  "nodes": [
    {
      "children": [
        1
      ],
      "matrix": [
        1.0,
        0.0,
        0.0,
        0.0,
        0.0,
        2.220446049250313e-16,
        -1.0,
        0.0,
        0.0,
        1.0,
        2.220446049250313e-16,
        0.0,
        0.0,
        0.0,
        0.0,
        1.0
      ],
      "name": "Sketchfab_model"
    },
    {
      "children": [
        2
      ],
      "matrix": [
        1.0,
        0.0,
        0.0,
        0.0,
        0.0,
        0.0,
        1.0,
        0.0,
        0.0,
        -1.0,
        0.0,
        0.0,
        0.0,
        0.0,
        0.0,
        1.0
      ],
      "name": "e2ee49c82e914d12b6d4e8478f4aaa7b.fbx"
    },
    {
      "children": [
        3
      ],
      "name": "RootNode"
    },
    {
      "children": [
        4
      ],
      "matrix": [
        67.95687057253248,
        -34.074694920770256,
        -64.96752194785103,
        0.0,
        -30.52973099345293,
        67.38979837635371,
        -67.27964476914096,
        0.0,
        66.70682083895903,
        65.55555580270776,
        35.39308806583646,
        0.0,
        302.6104431152344,
        46.316463470458984,
        46.18824005126953,
        1.0
      ],
      "name": "Cube_cell.018"
    },
    {
      "mesh": 0,
      "name": "Cube_cell.018__0"
    }
  ],
  "scene": 0,
  "scenes": [
    {
      "name": "Sketchfab_Scene",
      "nodes": [
        0
      ]
    }
  ]
}
