{
  "accessors": [
    {
      "bufferView": 3,
      "componentType": 5126,
      "count": 1188,
      "max": [
        117.6881332397461,
        167.46327209472656,
        30.937820434570313
      ],
      "min": [
        -121.77740478515625,
        108.18098449707031,
        -27.984176635742188
      ],
      "type": "VEC3"
    },
    {
      "bufferView": 3,
      "byteOffset": 14256,
      "componentType": 5126,
      "count": 1188,
      "max": [
        0.9959437847137451,
        0.9892468452453613,
        0.9997100234031677
      ],
      "min": [
        -0.9963192343711853,
        -0.9992340803146362,
        -0.9967410564422607
      ],
      "type": "VEC3"
    },
    {
      "bufferView": 2,
      "componentType": 5126,
      "count": 1188,
      "max": [
        0.981905460357666,
        0.8149861693382263
      ],
      "min": [
        0.014967469498515129,
        0.2853020131587982
      ],
      "type": "VEC2"
    },
    {
      "bufferView": 1,
      "componentType": 5125,
      "count": 4944,
      "type": "SCALAR"
    },
    {
      "bufferView": 3,
      "byteOffset": 28512,
      "componentType": 5126,
      "count": 265,
      "max": [
        23.331106185913086,
        167.46327209472656,
        30.937820434570313
      ],
      "min": [
        -23.66856575012207,
        111.21940612792969,
        -27.984176635742188
      ],
      "type": "VEC3"
    },
    {
      "bufferView": 3,
      "byteOffset": 31692,
      "componentType": 5126,
      "count": 265,
      "max": [
        0.9959436655044556,
        0.9892467856407166,
        0.9985607862472534
      ],
      "min": [
        -0.9963192343711853,
        -0.9992340803146362,
        -0.9967409372329712
      ],
      "type": "VEC3"
    },
    {
      "bufferView": 2,
      "byteOffset": 9504,
      "componentType": 5126,
      "count": 265,
      "max": [
        0.981905460357666,
        0.8149861693382263
      ],
      "min": [
        0.014967469498515129,
        0.2853020131587982
      ],
      "type": "VEC2"
    },
    {
      "bufferView": 1,
      "byteOffset": 19776,
      "componentType": 5125,
      "count": 1104,
      "type": "SCALAR"
    },
    {
      "bufferView": 3,
      "byteOffset": 34872,
      "componentType": 5126,
      "count": 2026,
      "max": [
        88.64397430419922,
        110.59452819824219,
        17.939327239990234
      ],
      "min": [
        -88.64397430419922,
        -0.2682065963745117,
        -18.307348251342773
      ],
      "type": "VEC3"
    },
    {
      "bufferView": 3,
      "byteOffset": 59184,
      "componentType": 5126,
      "count": 2026,
      "max": [
        1.0,
        0.9997888207435608,
        0.9999910593032837
      ],
      "min": [
        -1.0,
        -1.0,
        -0.9999880194664001
      ],
      "type": "VEC3"
    },
    {
      "bufferView": 2,
      "byteOffset": 11624,
      "componentType": 5126,
      "count": 2026,
      "max": [
        0.11246305704116821,
        0.788511335849762
      ],
      "min": [
        0.01166754961013794,
        0.5688861012458801
      ],
      "type": "VEC2"
    },
    {
      "bufferView": 1,
      "byteOffset": 24192,
      "componentType": 5125,
      "count": 6636,
      "type": "SCALAR"
    },
    {
      "bufferView": 5,
      "componentType": 5126,
      "count": 47,
      "max": [
        1.0,
        0.6332229375839233,
        0.37349000573158264,
        0.0,
        0.6471113562583923,
        1.0,
        0.28678804636001587,
        0.0,
        0.4980970621109009,
        0.08852129429578781,
        1.0,
        0.0,
        60.66512680053711,
        0.0,
        25.020729064941406,
        1.0
      ],
      "min": [
        0.6356077790260315,
        -0.7008510828018188,
        -0.4095759391784668,
        0.0,
        -0.5662350654602051,
        0.7123559713363647,
        -0.009032429195940495,
        0.0,
        -0.4210098385810852,
        -0.0593910776078701,
        0.8660250306129456,
        0.0,
        -60.66509246826172,
        -117.30402374267578,
        -9.63486385345459,
        1.0
      ],
      "type": "MAT4"
    },
    {
      "bufferView": 0,
      "componentType": 5123,
      "count": 265,
      "type": "VEC4"
    },
    {
      "bufferView": 4,
      "componentType": 5126,
      "count": 265,
      "max": [
        1.0,
        0.0,
        0.0,
        0.0
      ],
      "min": [
        1.0,
        0.0,
        0.0,
        0.0
      ],
      "type": "VEC4"
    },
    {
      "bufferView": 0,
      "byteOffset": 2120,
      "componentType": 5123,
      "count": 2026,
      "type": "VEC4"
    },
    {
      "bufferView": 4,
      "byteOffset": 4240,
      "componentType": 5126,
      "count": 2026,
      "max": [
        1.0,
        0.4956125020980835,
        0.0,
        0.0
      ],
      "min": [
        0.5043874979019165,
        0.0,
        0.0,
        0.0
      ],
      "type": "VEC4"
    }
  ],
  "asset": {
    "extras": {
      "author": "BitGem (https://sketchfab.com/bitgem)",
      "license": "CC-BY-4.0 (http://creativecommons.org/licenses/by/4.0/)",
      "source": "https://sketchfab.com/3d-models/npc-character-proto-series-bc68d4c252dd4966988201cc65b57483",
      "title": "NPC Character - Proto Series"
    },
    "generator": "Sketchfab-12.66.0",
    "version": "2.0"
  },
  "bufferViews": [
    {
      "buffer": 0,
      "byteLength": 18328,
      "byteStride": 8,
      "name": "shortBufferViews",
      "target": 34962
    },
    {
      "buffer": 0,
      "byteLength": 50736,
      "byteOffset": 18328,
      "name": "floatBufferViews",
      "target": 34963
    },
    {
      "buffer": 0,
      "byteLength": 27832,
      "byteOffset": 69064,
      "byteStride": 8,
      "name": "floatBufferViews",
      "target": 34962
    },
    {
      "buffer": 0,
      "byteLength": 83496,
      "byteOffset": 96896,
      "byteStride": 12,
      "name": "floatBufferViews",
      "target": 34962
    },
    {
      "buffer": 0,
      "byteLength": 36656,
      "byteOffset": 180392,
      "byteStride": 16,
      "name": "floatBufferViews",
      "target": 34962
    },
    {
      "buffer": 0,
      "byteLength": 3008,
      "byteOffset": 217048,
      "name": "floatBufferViews"
    }
  ],
  "buffers": [
    {
      "byteLength": 220056,
      "uri": "scene.bin"
    }
  ],
  "images": [
    {
      "uri": "textures/NPC_mat_baseColor.png"
    }
  ],
  "materials": [
    {
      "name": "NPC_mat",
      "pbrMetallicRoughness": {
        "baseColorTexture": {
          "index": 0
        },
        "metallicFactor": 0.0
      }
    }
  ],
  "meshes": [
    {
      "name": "head_angry_NPC1_NPC_mat_0",
      "primitives": [
        {
          "attributes": {
            "NORMAL": 1,
            "POSITION": 0,
            "TEXCOORD_0": 2
          },
          "indices": 3,
          "material": 0,
          "mode": 4
        }
      ]
    },
    {
      "name": "head_neutral_NPC_NPC_mat_0",
      "primitives": [
        {
          "attributes": {
            "JOINTS_0": 13,
            "NORMAL": 5,
            "POSITION": 4,
            "TEXCOORD_0": 6,
            "WEIGHTS_0": 14
          },
          "indices": 7,
          "material": 0,
          "mode": 4
        }
      ]
    },
    {
      "name": "body_NPC_NPC_mat_0",
      "primitives": [
        {
          "attributes": {
            "JOINTS_0": 15,
            "NORMAL": 9,
            "POSITION": 8,
            "TEXCOORD_0": 10,
            "WEIGHTS_0": 16
          },
          "indices": 11,
          "material": 0,
          "mode": 4
        }
      ]
    }
  ],
  "nodes": [
    {
      "children": [
        1
      ],
      "matrix": [
        0.008245537988841534,
        0.0,
        0.0,
        0.0,
        0.0,
        1.8308772251266556e-18,
        -0.008245537988841534,
        0.0,
        0.0,
        0.008245537988841534,
        1.8308772251266556e-18,
        0.0,
        0.0,
        0.0,
        0.0,
        1.0
      ],
      "name": "Sketchfab_model"
    },
    {
      "children": [
        2
      ],
      "matrix": [
        1.0,
        0.0,
        0.0,
        0.0,
        0.0,
        0.0,
        1.0,
        0.0,
        0.0,
        -1.0,
        0.0,
        0.0,
        0.0,
        0.0,
        0.0,
        1.0
      ],
      "name": "NPC_sketchfab.fbx"
    },
    {
      "children": [
        3,
        5
      ],
      "name": "RootNode"
    },
    {
      "children": [
        4
      ],
      "matrix": [
        1.0,
        0.0,
        0.0,
        0.0,
        0.0,
        1.0,
        0.0,
        0.0,
        0.0,
        0.0,
        1.0,
        0.0,
        408.5873107910156,
        0.0,
        0.0,
        1.0
      ],
      "name": "head_angry_NPC1"
    },
    {
      "mesh": 0,
      "name": "head_angry_NPC1_NPC_mat_0"
    },
    {
      "children": [
        6
      ],
      "name": "Character1_Reference"
    },
    {
      "children": [
        7,
        9,
        56,
        8
      ],
      "name": "Object_6"
    },
    {
      "children": [
        10
      ],
      "name": "_rootJoint"
    },
    {
      "matrix": [
        1.0,
        0.0,
        0.0,
        0.0,
        0.0,
        1.0,
        0.0,
        0.0,
        0.0,
        0.0,
        1.0,
        0.0,
        3.08773e-06,
        115.812973,
        -0.02089680000000005,
        1.0
      ],
      "name": "Object_8"
    },
    {
      "mesh": 1,
      "name": "Object_9",
      "skin": 0
    },
    {
      "children": [
        11,
        15,
        19
      ],
      "name": "Character1_Hips_01",
      "translation": [
        8.881784197001252e-15,
        60.249595642089844,
        -1.6670998334884644
      ]
    },
    {
      "children": [
        12
      ],
      "name": "Character1_LeftUpLeg_02",
      "translation": [
        9.13746452331543,
        -3.7891578674316406,
        0.3104139566421509
      ]
    },
    {
      "children": [
        13
      ],
      "name": "Character1_LeftLeg_03",
      "translation": [
        -1.7763568394002505e-15,
        -24.906753540039063,
        0.2267000675201416
      ]
    },
    {
      "children": [
        14
      ],
      "name": "Character1_LeftFoot_04",
      "translation": [
        -0.1374645233154297,
        -20.810474395751953,
        -1.0873610973358154
      ]
    },
    {
      "name": "Character1_LeftToeBase_05",
      "translation": [
        8.58306884765625e-06,
        -5.7123003005981445,
        8.833938598632813
      ]
    },
    {
      "children": [
        16
      ],
      "name": "Character1_RightUpLeg_06",
      "translation": [
        -9.13700008392334,
        -3.7891578674316406,
        0.3104139566421509
      ]
    },
    {
      "children": [
        17
      ],
      "name": "Character1_RightLeg_07",
      "translation": [
        -0.00046443939208984375,
        -24.906753540039063,
        0.2267000675201416
      ]
    },
    {
      "children": [
        18
      ],
      "name": "Character1_RightFoot_08",
      "translation": [
        0.1374645233154297,
        -20.810474395751953,
        -1.0873610973358154
      ]
    },
    {
      "name": "Character1_RightToeBase_09",
      "rotation": [
        0.0,
        4.189127139397897e-05,
        0.0,
        1.0
      ],
      "translation": [
        -8.58306884765625e-06,
        -5.7123003005981445,
        8.833938598632813
      ]
    },
    {
      "children": [
        20
      ],
      "name": "Character1_Spine_010",
      "translation": [
        -8.881784197001252e-15,
        6.2144012451171875,
        0.5636328458786011
      ]
    },
    {
      "children": [
        21
      ],
      "name": "Character1_Spine1_011",
      "translation": [
        0.0,
        13.236328125,
        -0.04894363880157471
      ]
    },
    {
      "children": [
        22,
        38,
        54
      ],
      "name": "Character1_Spine2_012",
      "translation": [
        0.0,
        13.236328125,
        0.0
      ]
    },
    {
      "children": [
        23
      ],
      "name": "Character1_LeftShoulder_00",
      "translation": [
        6.716192245483398,
        6.9692230224609375,
        -1.1518539190292358
      ]
    },
    {
      "children": [
        24
      ],
      "name": "Character1_LeftArm_013",
      "rotation": [
        0.0,
        -0.0,
        -0.6427925229072571,
        0.7660403251647949
      ],
      "translation": [
        12.906000137329102,
        -1.4210854715202004e-14,
        -3.871910572052002
      ]
    },
    {
      "children": [
        25
      ],
      "name": "Character1_LeftForeArm_014",
      "rotation": [
        0.0,
        0.0,
        1.2833092114306055e-05,
        1.0
      ],
      "translation": [
        21.12648582458496,
        0.00027111812960356474,
        -1.2352371215820313
      ]
    },
    {
      "children": [
        26,
        29,
        32,
        35
      ],
      "name": "Character1_LeftHand_015",
      "rotation": [
        0.0,
        -0.0,
        -6.4165460571530275e-06,
        1.0
      ],
      "translation": [
        19.91641616821289,
        -0.00025558919878676534,
        1.8193368911743164
      ]
    },
    {
      "children": [
        27
      ],
      "name": "Character1_LeftHandThumb1_016",
      "rotation": [
        -0.02041986957192421,
        -0.08771760761737823,
        -0.21367233991622925,
        0.9727450013160706
      ],
      "translation": [
        3.9355316162109375,
        -3.9158248901367188,
        9.467683792114258
      ]
    },
    {
      "children": [
        28
      ],
      "name": "Character1_LeftHandThumb2_017",
      "rotation": [
        8.456776945386935e-18,
        -1.1102230246251565e-16,
        1.8512752095189988e-17,
        1.0
      ],
      "translation": [
        5.773322582244873,
        -0.34708645939826965,
        0.4873841404914856
      ]
    },
    {
      "name": "Character1_LeftHandThumb3_018",
      "rotation": [
        3.4477989735786114e-17,
        -1.3877778543391596e-16,
        2.59933631241438e-06,
        1.0
      ],
      "translation": [
        8.11282730102539,
        -0.5697544813156128,
        -0.6705577969551086
      ]
    },
    {
      "children": [
        30
      ],
      "name": "Character1_LeftHandIndex1_019",
      "rotation": [
        0.038479018956422806,
        -0.049373798072338104,
        -0.12472550570964813,
        0.9902147054672241
      ],
      "translation": [
        14.154991149902344,
        -1.4273681640625,
        8.158214569091797
      ]
    },
    {
      "children": [
        31
      ],
      "name": "Character1_LeftHandIndex2_020",
      "rotation": [
        4.558992827696784e-08,
        0.017452405765652657,
        2.6118450477952138e-06,
        0.9998477101325989
      ],
      "translation": [
        5.695320129394531,
        -2.2100000933278352e-05,
        0.14719901978969574
      ]
    },
    {
      "name": "Character1_LeftHandIndex3_021",
      "rotation": [
        -4.558992827696784e-08,
        -0.017452405765652657,
        -2.6118450477952138e-06,
        0.9998477101325989
      ],
      "translation": [
        7.046856880187988,
        -1.1148465871810913,
        -0.3137904703617096
      ]
    },
    {
      "children": [
        33
      ],
      "name": "Character1_LeftHandMiddle1_022",
      "rotation": [
        0.0,
        -0.0,
        -0.13052618503570557,
        0.9914448857307434
      ],
      "translation": [
        16.057205200195313,
        -0.8850002288818359,
        -0.0066070556640625
      ]
    },
    {
      "children": [
        34
      ],
      "name": "Character1_LeftHandMiddle2_023",
      "rotation": [
        -4.315430639180143e-22,
        3.109595490968786e-05,
        1.3877787807814457e-17,
        1.0
      ],
      "translation": [
        5.954345703125,
        1.0658141036401503e-14,
        0.00030245500965975225
      ]
    },
    {
      "name": "Character1_LeftHandMiddle3_024",
      "rotation": [
        2.7648970397434192e-21,
        -3.109595490968786e-05,
        3.469446951953614e-17,
        1.0
      ],
      "translation": [
        6.728369235992432,
        -0.28213346004486084,
        0.560257077217102
      ]
    },
    {
      "children": [
        36
      ],
      "name": "Character1_LeftHandPinky1_025",
      "rotation": [
        -0.02786829322576523,
        -0.04027201980352402,
        -0.12751644849777222,
        0.9906266331672668
      ],
      "translation": [
        14.879409790039063,
        -2.9735870361328125,
        -7.410651206970215
      ]
    },
    {
      "children": [
        37
      ],
      "name": "Character1_LeftHandPinky2_026",
      "rotation": [
        4.234002961101171e-18,
        -9.386853863057884e-19,
        -0.21644611656665802,
        0.9762945771217346
      ],
      "translation": [
        5.256248474121094,
        4.059999992023222e-05,
        -2.6645352591003757e-15
      ]
    },
    {
      "name": "Character1_LeftHandPinky3_027",
      "rotation": [
        -6.938893903907228e-18,
        -4.620372205831398e-23,
        6.65865809423849e-06,
        1.0
      ],
      "translation": [
        5.542487144470215,
        -0.8725635409355164,
        0.39420679211616516
      ]
    },
    {
      "children": [
        39
      ],
      "name": "Character1_RightShoulder_028",
      "translation": [
        -6.716192245483398,
        6.9692230224609375,
        -1.1518539190292358
      ]
    },
    {
      "children": [
        40
      ],
      "name": "Character1_RightArm_029",
      "rotation": [
        0.0,
        0.0,
        0.6428031325340271,
        0.7660314440727234
      ],
      "translation": [
        -12.906034469604492,
        -2.842170943040401e-14,
        -3.871910572052002
      ]
    },
    {
      "children": [
        41
      ],
      "name": "Character1_RightForeArm_030",
      "rotation": [
        0.0,
        -0.0,
        -4.0463033656124026e-05,
        1.0
      ],
      "translation": [
        -21.12648582458496,
        0.0008548416662961245,
        -1.2352371215820313
      ]
    },
    {
      "children": [
        42,
        45,
        48,
        51
      ],
      "name": "Character1_RightHand_031",
      "rotation": [
        0.0,
        0.0,
        2.0231516828062013e-05,
        1.0
      ],
      "translation": [
        -19.91641616821289,
        -0.0008058786042965949,
        1.8193368911743164
      ]
    },
    {
      "children": [
        43
      ],
      "name": "Character1_RightHandThumb1_032",
      "rotation": [
        -0.06518939137458801,
        0.031179236248135567,
        0.2208477258682251,
        0.9726276397705078
      ],
      "translation": [
        -3.9355316162109375,
        -3.9158248901367188,
        9.467683792114258
      ]
    },
    {
      "children": [
        44
      ],
      "name": "Character1_RightHandThumb2_033",
      "rotation": [
        1.3877787807814457e-17,
        -8.326672684688674e-17,
        3.382710778154774e-17,
        1.0
      ],
      "translation": [
        -5.707664966583252,
        -0.43512895703315735,
        0.9604628086090088
      ]
    },
    {
      "name": "Character1_RightHandThumb3_034",
      "rotation": [
        -3.4693887184384905e-17,
        -1.1102248775097287e-16,
        5.254191364656435e-06,
        1.0
      ],
      "translation": [
        -6.785633087158203,
        -0.24842670559883118,
        0.39011457562446594
      ]
    },
    {
      "children": [
        46
      ],
      "name": "Character1_RightHandIndex1_035",
      "rotation": [
        0.038479018956422806,
        0.049373798072338104,
        0.12472550570964813,
        0.9902147054672241
      ],
      "translation": [
        -14.154991149902344,
        -1.4273681640625,
        8.158214569091797
      ]
    },
    {
      "children": [
        47
      ],
      "name": "Character1_RightHandIndex2_036",
      "rotation": [
        3.5816080108043744e-17,
        0.017452970147132874,
        -6.395224483223076e-17,
        0.9998477101325989
      ],
      "translation": [
        -5.695320129394531,
        -3.000000106112566e-07,
        -0.14735178649425507
      ]
    },
    {
      "name": "Character1_RightHandIndex3_037",
      "rotation": [
        5.4317175574041635e-17,
        -0.017452970147132874,
        -6.888511325413359e-17,
        0.9998477101325989
      ],
      "translation": [
        -6.3030781745910645,
        -1.3090906143188477,
        -0.21190954744815826
      ]
    },
    {
      "children": [
        49
      ],
      "name": "Character1_RightHandMiddle1_038",
      "rotation": [
        0.0,
        0.0,
        0.13052618503570557,
        0.9914448857307434
      ],
      "translation": [
        -16.057205200195313,
        -0.8850002288818359,
        -0.0066070556640625
      ]
    },
    {
      "children": [
        50
      ],
      "name": "Character1_RightHandMiddle2_039",
      "rotation": [
        -3.635344020860565e-19,
        0.017452970147132874,
        2.082619925184972e-17,
        0.9998477101325989
      ],
      "translation": [
        -5.954345703125,
        -4.000000330961484e-07,
        -0.1695987582206726
      ]
    },
    {
      "name": "Character1_RightHandMiddle3_040",
      "rotation": [
        4.612342551983431e-19,
        -0.017452970147132874,
        -4.163165612265906e-17,
        0.9998477101325989
      ],
      "translation": [
        -5.978399276733398,
        -0.48894819617271423,
        0.5214076042175293
      ]
    },
    {
      "children": [
        52
      ],
      "name": "Character1_RightHandPinky1_041",
      "rotation": [
        -0.029354723170399666,
        0.043674908578395844,
        0.3427620530128479,
        0.9379472136497498
      ],
      "translation": [
        -14.879409790039063,
        -2.9735870361328125,
        -7.410651206970215
      ]
    },
    {
      "children": [
        53
      ],
      "name": "Character1_RightHandPinky2_042",
      "rotation": [
        0.003030490828678012,
        0.017187856137752533,
        0.17361107468605042,
        0.984659731388092
      ],
      "translation": [
        -5.256248474121094,
        -6.600000051548705e-05,
        -0.1062873974442482
      ]
    },
    {
      "name": "Character1_RightHandPinky3_043",
      "rotation": [
        1.8904437126820994e-07,
        -0.017452970147132874,
        1.0829994607775006e-05,
        0.9998477101325989
      ],
      "translation": [
        -4.84801721572876,
        -0.19715248048305511,
        0.192726731300354
      ]
    },
    {
      "children": [
        55
      ],
      "name": "Character1_Neck_044",
      "translation": [
        6.041520941564658e-15,
        13.236328125,
        -0.7715325355529785
      ]
    },
    {
      "name": "Character1_Head_045",
      "translation": [
        3.0877295102982316e-06,
        9.639991760253906,
        1.9030463695526123
      ]
    },
    {
      "mesh": 2,
      "name": "Object_56",
      "skin": 0
    }
  ],
  "samplers": [
    {
      "magFilter": 9729,
      "minFilter": 9987,
      "wrapS": 10497,
      "wrapT": 10497
    }
  ],
  "scene": 0,
  "scenes": [
    {
      "name": "Sketchfab_Scene",
      "nodes": [
        0
      ]
    }
  ],
  "skins": [
    {
      "inverseBindMatrices": 12,
      "joints": [
        7,
        10,
        11,
        12,
        13,
        14,
        15,
        16,
        17,
        18,
        19,
        20,
        21,
        22,
        23,
        24,
        25,
        26,
        27,
        28,
        29,
        30,
        31,
        32,
        33,
        34,
        35,
        36,
        37,
        38,
        39,
        40,
        41,
        42,
        43,
        44,
        45,
        46,
        47,
        48,
        49,
        50,
        51,
        52,
        53,
        54,
        55
      ],
      "skeleton": 7
    }
  ],
  "textures": [
    {
      "sampler": 0,
      "source": 0
    }
  ]
}
