{
  "accessors": [
    {
      "bufferView": 3,
      "componentType": 5126,
      "count": 16770,
      "max": [
        3.628392219543457,
        14.866937637329102,
        4.097463607788086
      ],
      "min": [
        -3.628570318222046,
        0.001525941421277821,
        -2.736598491668701
      ],
      "type": "VEC3"
    },
    {
      "bufferView": 3,
      "byteOffset": 201240,
      "componentType": 5126,
      "count": 16770,
      "max": [
        1.0,
        1.0,
        0.9996960759162903
      ],
      "min": [
        -1.0,
        -0.999981701374054,
        -0.9999091029167175
      ],
      "type": "VEC3"
    },
    {
      "bufferView": 4,
      "componentType": 5126,
      "count": 16770,
      "max": [
        0.9999982118606567,
        1.0,
        0.999983012676239,
        1.0
      ],
      "min": [
        -0.9999959468841553,
        -0.9999996423721313,
        -0.9999930262565613,
        1.0
      ],
      "type": "VEC4"
    },
    {
      "bufferView": 2,
      "componentType": 5126,
      "count": 16770,
      "max": [
        0.9990234375,
        0.9938035607337952
      ],
      "min": [
        0.0009765625,
        0.0009765625
      ],
      "type": "VEC2"
    },
    {
      "bufferView": 1,
      "componentType": 5125,
      "count": 45087,
      "type": "SCALAR"
    },
    {
      "bufferView": 5,
      "componentType": 5126,
      "count": 20,
      "max": [
        1.0,
        0.3920675814151764,
        1.0000001192092896,
        0.0,
        0.39206764101982117,
        1.0,
        0.42582571506500244,
        0.0,
        1.0,
        5.077873410641587e-08,
        1.0,
        0.0,
        4.263565540313721,
        6.58878231048584,
        0.0,
        1.0
      ],
      "min": [
        -0.9261362552642822,
        -0.39206764101982117,
        -0.9999998807907104,
        0.0,
        -0.3920675814151764,
        -1.000000238418579,
        -1.0295367047774562e-07,
        0.0,
        -0.9999997615814209,
        -0.42585092782974243,
        1.1923611964448355e-07,
        0.0,
        -4.168851375579834,
        -13.782453536987305,
        -5.068729877471924,
        1.0
      ],
      "type": "MAT4"
    },
    {
      "bufferView": 0,
      "componentType": 5123,
      "count": 16770,
      "type": "VEC4"
    },
    {
      "bufferView": 4,
      "byteOffset": 268320,
      "componentType": 5126,
      "count": 16770,
      "max": [
        1.0,
        0.0,
        0.0,
        0.0
      ],
      "min": [
        1.0,
        0.0,
        0.0,
        0.0
      ],
      "type": "VEC4"
    },
    {
      "bufferView": 6,
      "componentType": 5126,
      "count": 28,
      "max": [
        1.5416666269302368
      ],
      "min": [
        0.0
      ],
      "type": "SCALAR"
    },
    {
      "bufferView": 7,
      "componentType": 5126,
      "count": 28,
      "max": [
        1.0221495628356934,
        1.9663488615151437e-09,
        8.709259986877441
      ],
      "min": [
        1.0221495628356934,
        -3.776531514176895e-07,
        0.024578332901000977
      ],
      "type": "VEC3"
    },
    {
      "bufferView": 6,
      "byteOffset": 112,
      "componentType": 5126,
      "count": 28,
      "max": [
        1.5416666269302368
      ],
      "min": [
        0.0
      ],
      "type": "SCALAR"
    },
    {
      "bufferView": 7,
      "byteOffset": 336,
      "componentType": 5126,
      "count": 28,
      "max": [
        -0.8847867250442505,
        0.003689606674015522,
        8.816058158874512
      ],
      "min": [
        -0.8847867250442505,
        0.00368922739289701,
        0.1313766986131668
      ],
      "type": "VEC3"
    }
  ],
  "animations": [
    {
      "channels": [
        {
          "sampler": 0,
          "target": {
            "node": 3,
            "path": "translation"
          }
        },
        {
          "sampler": 1,
          "target": {
            "node": 28,
            "path": "translation"
          }
        }
      ],
      "name": "Animation",
      "samplers": [
        {
          "input": 8,
          "interpolation": "LINEAR",
          "output": 9
        },
        {
          "input": 10,
          "interpolation": "LINEAR",
          "output": 11
        }
      ]
    }
  ],
  "asset": {
    "extras": {
      "author": "superdrew25block (https://sketchfab.com/superdrew25block)",
      "license": "CC-BY-4.0 (http://creativecommons.org/licenses/by/4.0/)",
      "source": "https://sketchfab.com/3d-models/k-vrc-rigged-290a9690f8874b41b36e5ae91536e9ad",
      "title": "K-VRC Rigged"
    },
    "generator": "Sketchfab-14.38.0",
    "version": "2.0"
  },
  "bufferViews": [
    {
      "buffer": 0,
      "byteLength": 134160,
      "byteStride": 8,
      "name": "shortBufferViews",
      "target": 34962
    },
    {
      "buffer": 0,
      "byteLength": 180348,
      "byteOffset": 134160,
      "name": "floatBufferViews",
      "target": 34963
    },
    {
      "buffer": 0,
      "byteLength": 134160,
      "byteOffset": 314508,
      "byteStride": 8,
      "name": "floatBufferViews",
      "target": 34962
    },
    {
      "buffer": 0,
      "byteLength": 402480,
      "byteOffset": 448668,
      "byteStride": 12,
      "name": "floatBufferViews",
      "target": 34962
    },
    {
      "buffer": 0,
      "byteLength": 536640,
      "byteOffset": 851148,
      "byteStride": 16,
      "name": "floatBufferViews",
      "target": 34962
    },
    {
      "buffer": 0,
      "byteLength": 1280,
      "byteOffset": 1387788,
      "name": "floatBufferViews"
    },
    {
      "buffer": 0,
      "byteLength": 224,
      "byteOffset": 1389068,
      "name": "floatBufferViews"
    },
    {
      "buffer": 0,
      "byteLength": 672,
      "byteOffset": 1389292,
      "byteStride": 12,
      "name": "floatBufferViews"
    }
  ],
  "buffers": [
    {
      "byteLength": 1389964,
      "uri": "scene.bin"
    }
  ],
  "images": [
    {
      "uri": "textures/Material_baseColor.jpeg"
    },
    {
      "uri": "textures/Material_metallicRoughness.png"
    },
    {
      "uri": "textures/Material_emissive.jpeg"
    },
    {
      "uri": "textures/Material_normal.jpeg"
    }
  ],
  "materials": [
    {
      "doubleSided": true,
      "emissiveFactor": [
        1.0,
        1.0,
        1.0
      ],
      "emissiveTexture": {
        "index": 2
      },
      "name": "Material",
      "normalTexture": {
        "index": 3
      },
      "pbrMetallicRoughness": {
        "baseColorTexture": {
          "index": 0
        },
        "metallicFactor": 0.0,
        "metallicRoughnessTexture": {
          "index": 1
        }
      }
    }
  ],
  "meshes": [
    {
      "name": "Object_0",
      "primitives": [
        {
          "attributes": {
            "JOINTS_0": 6,
            "NORMAL": 1,
            "POSITION": 0,
            "TANGENT": 2,
            "TEXCOORD_0": 3,
            "WEIGHTS_0": 7
          },
          "indices": 4,
          "material": 0,
          "mode": 4
        }
      ]
    }
  ],
  "nodes": [
    {
      "children": [
        1
      ],
      "matrix": [
        1.0,
        0.0,
        0.0,
        0.0,
        0.0,
        2.220446049250313e-16,
        -1.0,
        0.0,
        0.0,
        1.0,
        2.220446049250313e-16,
        0.0,
        0.0,
        0.0,
        0.0,
        1.0
      ],
      "name": "Sketchfab_model"
    },
    {
      "children": [
        2
      ],
      "name": "root"
    },
    {
      "children": [
        3,
        4,
        28
      ],
      "matrix": [
        1.0,
        0.0,
        0.0,
        0.0,
        0.0,
        2.220446049250313e-16,
        1.0,
        0.0,
        0.0,
        -1.0,
        2.220446049250313e-16,
        0.0,
        0.0,
        0.0,
        0.0,
        1.0
      ],
      "name": "GLTF_SceneRootNode"
    },
    {
      "name": "Empty_1",
      "rotation": [
        0.0,
        0.0,
        0.7071066498756409,
        0.70710688829422
      ],
      "scale": [
        0.009999999776482582,
        0.009999999776482582,
        0.009999999776482582
      ],
      "translation": [
        1.0221495628356934,
        0.0,
        0.024578332901000977
      ]
    },
    {
      "children": [
        5
      ],
      "matrix": [
        1.0,
        0.0,
        0.0,
        0.0,
        0.0,
        1.0,
        0.0,
        0.0,
        0.0,
        0.0,
        1.0,
        0.0,
        0.051479119807481766,
        4.600698947906494,
        0.1377650648355484,
        1.0
      ],
      "name": "Kosti_22"
    },
    {
      "children": [
        6,
        8,
        7
      ],
      "name": "GLTF_created_0"
    },
    {
      "children": [
        9
      ],
      "name": "GLTF_created_0_rootJoint"
    },
    {
      "name": "1 L_21"
    },
    {
      "mesh": 0,
      "name": "Object_8",
      "skin": 0
    },
    {
      "children": [
        10,
        22,
        25
      ],
      "name": "Taz_20",
      "rotation": [
        8.146034247147327e-08,
        0.0,
        0.0,
        1.0
      ],
      "translation": [
        0.0,
        -0.02613462507724762,
        0.0010119465878233314
      ]
    },
    {
      "children": [
        11,
        16,
        19
      ],
      "name": "spina_13",
      "rotation": [
        0.002802350325509906,
        1.1920882059257565e-07,
        -3.3406619137643645e-10,
        0.9999960660934448
      ],
      "scale": [
        1.0,
        0.9999998211860657,
        0.9999998211860657
      ],
      "translation": [
        0.0,
        1.1886043548583984,
        0.0
      ]
    },
    {
      "children": [
        12,
        14
      ],
      "name": "Head_6",
      "rotation": [
        -2.3283061589829401e-10,
        -2.0292394787150875e-20,
        -3.621912882459388e-18,
        1.0
      ],
      "scale": [
        1.0,
        1.0000001192092896,
        1.0000001192092896
      ],
      "translation": [
        2.220446049250313e-16,
        2.281099557876587,
        2.0290302771286406e-09
      ]
    },
    {
      "children": [
        13
      ],
      "name": "uho.L_3",
      "rotation": [
        -0.2402069866657257,
        -0.0013015498407185078,
        0.005310636013746262,
        0.9707063436508179
      ],
      "scale": [
        1.000000238418579,
        1.000000238418579,
        1.0
      ],
      "translation": [
        3.2382283210754395,
        3.735910415649414,
        -0.07579512894153595
      ]
    },
    {
      "name": "uho.L_end_2",
      "rotation": [
        -8.942697604652494e-08,
        2.294655132573098e-09,
        -1.1973726010694463e-08,
        1.0
      ],
      "scale": [
        0.9999999403953552,
        0.9999999403953552,
        1.0
      ],
      "translation": [
        -1.4868787445720955e-07,
        3.1587703227996826,
        4.1071356804422976e-07
      ]
    },
    {
      "children": [
        15
      ],
      "name": "uho.R_5",
      "rotation": [
        -0.24036021530628204,
        0.0013021448394283652,
        -0.00531045813113451,
        0.970668375492096
      ],
      "scale": [
        1.000000238418579,
        1.0000001192092896,
        1.0000001192092896
      ],
      "translation": [
        -3.238227605819702,
        3.735909938812256,
        -0.0757966861128807
      ]
    },
    {
      "name": "uho.R_end_4",
      "rotation": [
        -7.4205672717653215e-09,
        -5.775291009313399e-11,
        -1.3052159353321713e-08,
        1.0
      ],
      "scale": [
        0.9999998807907104,
        0.9999998807907104,
        1.0
      ],
      "translation": [
        5.228939130574872e-07,
        3.15877103805542,
        -1.899897910107029e-07
      ]
    },
    {
      "children": [
        17
      ],
      "name": "ruka1.L_9",
      "rotation": [
        -0.003119802800938487,
        0.015278439037501812,
        -0.9796605706214905,
        0.2000550925731659
      ],
      "scale": [
        1.0000001192092896,
        1.0,
        1.0
      ],
      "translation": [
        1.303308367729187,
        1.9064295291900635,
        3.1089930985217507e-07
      ]
    },
    {
      "children": [
        18
      ],
      "name": "ruka2.L_8",
      "rotation": [
        0.0002453520137351006,
        0.030449775978922844,
        -0.008055118843913078,
        0.9995038509368896
      ],
      "scale": [
        0.9999998211860657,
        1.0,
        1.0
      ],
      "translation": [
        -2.4661517272761557e-07,
        2.758873701095581,
        -4.149779186946034e-09
      ]
    },
    {
      "name": "ruka2.L_end_7",
      "rotation": [
        -9.313265714183672e-10,
        1.7047745437537287e-09,
        2.9802322387695313e-08,
        1.0
      ],
      "translation": [
        -3.27825517842939e-07,
        1.5556340217590332,
        -1.3175910049698179e-14
      ]
    },
    {
      "children": [
        20
      ],
      "name": "ruka1.R_12",
      "rotation": [
        -0.003117740387097001,
        -0.015267104841768742,
        0.97966068983078,
        0.20005525648593903
      ],
      "scale": [
        0.9999997615814209,
        0.9999998807907104,
        1.0
      ],
      "translation": [
        -1.3033086061477661,
        1.9064290523529053,
        -3.110322666088905e-07
      ]
    },
    {
      "children": [
        21
      ],
      "name": "ruka2.R_11",
      "rotation": [
        0.0002458218077663332,
        -0.0305080134421587,
        0.008055060170590878,
        0.9995020627975464
      ],
      "scale": [
        1.0000001192092896,
        1.000000238418579,
        1.0
      ],
      "translation": [
        2.0816689527691778e-07,
        2.758873701095581,
        -4.652026763807271e-09
      ]
    },
    {
      "name": "ruka2.R_end_10",
      "rotation": [
        -9.313264603960647e-10,
        -2.1704380515075172e-09,
        7.4505792646561986e-09,
        1.0
      ],
      "scale": [
        1.0,
        1.0000001192092896,
        1.0
      ],
      "translation": [
        -5.96046660916727e-08,
        1.5556340217590332,
        -1.4901146982992941e-08
      ]
    },
    {
      "children": [
        23
      ],
      "name": "Noga1.L_16",
      "rotation": [
        -0.7069068551063538,
        -0.011725212447345257,
        -0.7068989872932434,
        0.020953398197889328
      ],
      "scale": [
        1.0024514198303223,
        1.0000019073486328,
        1.0000001192092896
      ],
      "translation": [
        0.8008496165275574,
        0.11276864260435104,
        -0.0505305640399456
      ]
    },
    {
      "children": [
        24
      ],
      "name": "Noga2.L_15",
      "rotation": [
        -0.009696587920188904,
        4.25182133767521e-06,
        0.0004555540799628943,
        0.9999529719352722
      ],
      "scale": [
        1.0,
        0.9999997019767761,
        0.9999996423721313
      ],
      "translation": [
        -1.1664930132937457e-09,
        2.2739923000335693,
        -7.110868693871453e-08
      ]
    },
    {
      "name": "Noga2.L_end_14",
      "rotation": [
        -2.5611374354639338e-08,
        -2.5051271279608045e-08,
        2.3492314760176214e-09,
        1.0
      ],
      "scale": [
        1.0000001192092896,
        1.0,
        1.0
      ],
      "translation": [
        -7.618892183813841e-09,
        2.3786158561706543,
        5.896344745792703e-08
      ]
    },
    {
      "children": [
        26
      ],
      "name": "Noga1.R_19",
      "rotation": [
        -0.7069637179374695,
        0.016865737736225128,
        0.7069695591926575,
        0.010580758564174175
      ],
      "scale": [
        1.0024534463882446,
        1.0000003576278687,
        1.0000003576278687
      ],
      "translation": [
        -0.8008496761322021,
        0.11276864260435104,
        -0.0505305640399456
      ]
    },
    {
      "children": [
        27
      ],
      "name": "Noga2.R_18",
      "rotation": [
        -0.009696612134575844,
        3.2273580927721923e-06,
        0.00031033612322062254,
        0.9999529719352722
      ],
      "scale": [
        1.0,
        1.0,
        0.9999998211860657
      ],
      "translation": [
        1.1650378439753695e-09,
        2.273991823196411,
        3.6912901180130575e-08
      ]
    },
    {
      "name": "Noga2.R_end_17",
      "rotation": [
        5.551115123125783e-17,
        -2.1316282072803006e-14,
        -4.459325229498774e-15,
        1.0
      ],
      "scale": [
        1.0000001192092896,
        1.0000001192092896,
        1.0000001192092896
      ],
      "translation": [
        -1.7635902460622077e-10,
        2.3786160945892334,
        -6.783556472100827e-08
      ]
    },
    {
      "name": "Empty.001_23",
      "rotation": [
        0.70710688829422,
        -0.7071066498756409,
        0.0,
        5.338508657359853e-08
      ],
      "scale": [
        0.009999999776482582,
        0.009999999776482582,
        0.009999999776482582
      ],
      "translation": [
        -0.8847867250442505,
        0.003689606674015522,
        0.1313766986131668
      ]
    }
  ],
  "samplers": [
    {
      "magFilter": 9729,
      "minFilter": 9987,
      "wrapS": 10497,
      "wrapT": 10497
    }
  ],
  "scene": 0,
  "scenes": [
    {
      "name": "Sketchfab_Scene",
      "nodes": [
        0
      ]
    }
  ],
  "skins": [
    {
      "inverseBindMatrices": 5,
      "joints": [
        6,
        9,
        10,
        11,
        12,
        13,
        14,
        15,
        16,
        17,
        18,
        19,
        20,
        21,
        22,
        23,
        24,
        25,
        26,
        27
      ],
      "skeleton": 6
    }
  ],
  "textures": [
    {
      "sampler": 0,
      "source": 0
    },
    {
      "sampler": 0,
      "source": 1
    },
    {
      "sampler": 0,
      "source": 2
    },
    {
      "sampler": 0,
      "source": 3
    }
  ]
}
